<svg xmlns="http://www.w3.org/2000/svg" xmlns:xlink="http://www.w3.org/1999/xlink" width="500" zoomAndPan="magnify" viewBox="0 0 375 374.999991" height="500" preserveAspectRatio="xMidYMid meet" version="1.0"><defs><clipPath id="0c6800cb31"><path d="M 74.121094 115.144531 L 300.621094 115.144531 L 300.621094 259.894531 L 74.121094 259.894531 Z M 74.121094 115.144531 " clip-rule="nonzero"/></clipPath></defs><rect x="-37.5" width="450" fill="#ffffff" y="-37.499999" height="449.999989" fill-opacity="1"/><rect x="-37.5" width="450" fill="#feffff" y="-37.499999" height="449.999989" fill-opacity="1"/><path fill="#fb2e5c" d="M 339.875 120.476562 L 339.875 254.558594 C 339.875 256.140625 339.769531 257.714844 339.5625 259.285156 C 339.355469 260.851562 339.046875 262.398438 338.636719 263.929688 C 338.226562 265.457031 337.722656 266.949219 337.117188 268.414062 C 336.515625 269.875 335.820312 271.289062 335.03125 272.660156 C 334.242188 274.035156 333.367188 275.347656 332.410156 276.605469 C 331.449219 277.863281 330.414062 279.050781 329.296875 280.175781 C 328.183594 281.296875 327 282.34375 325.75 283.3125 C 324.5 284.28125 323.191406 285.164062 321.828125 285.960938 L 205.738281 352.964844 C 204.359375 353.757812 202.9375 354.457031 201.46875 355.0625 C 200 355.667969 198.5 356.175781 196.964844 356.585938 C 195.429688 356.996094 193.875 357.304688 192.300781 357.511719 C 190.726562 357.71875 189.144531 357.820312 187.554688 357.820312 C 185.96875 357.820312 184.386719 357.71875 182.8125 357.511719 C 181.238281 357.304688 179.683594 356.996094 178.148438 356.585938 C 176.613281 356.175781 175.113281 355.667969 173.644531 355.0625 C 172.175781 354.457031 170.753906 353.757812 169.375 352.964844 L 53.34375 285.960938 C 51.96875 285.171875 50.648438 284.296875 49.386719 283.332031 C 48.125 282.371094 46.933594 281.332031 45.808594 280.210938 C 44.683594 279.09375 43.636719 277.90625 42.667969 276.648438 C 41.699219 275.390625 40.816406 274.078125 40.019531 272.707031 C 39.222656 271.332031 38.519531 269.914062 37.910156 268.449219 C 37.296875 266.984375 36.785156 265.488281 36.371094 263.957031 C 35.960938 262.425781 35.648438 260.871094 35.4375 259.300781 C 35.226562 257.726562 35.121094 256.148438 35.121094 254.558594 L 35.121094 120.476562 C 35.121094 118.890625 35.226562 117.308594 35.433594 115.738281 C 35.644531 114.164062 35.957031 112.609375 36.367188 111.078125 C 36.78125 109.546875 37.292969 108.046875 37.902344 106.582031 C 38.511719 105.117188 39.214844 103.695312 40.011719 102.324219 C 40.808594 100.949219 41.691406 99.636719 42.660156 98.378906 C 43.628906 97.121094 44.679688 95.933594 45.804688 94.8125 C 46.929688 93.695312 48.121094 92.652344 49.382812 91.691406 C 50.648438 90.726562 51.964844 89.851562 53.34375 89.0625 L 169.421875 22 C 170.796875 21.210938 172.222656 20.515625 173.691406 19.914062 C 175.160156 19.3125 176.660156 18.804688 178.195312 18.398438 C 179.730469 17.992188 181.285156 17.683594 182.859375 17.480469 C 184.433594 17.273438 186.011719 17.171875 187.601562 17.171875 C 189.1875 17.171875 190.769531 17.273438 192.34375 17.480469 C 193.917969 17.683594 195.472656 17.992188 197.003906 18.398438 C 198.539062 18.804688 200.042969 19.3125 201.507812 19.914062 C 202.976562 20.515625 204.402344 21.210938 205.78125 22 L 321.871094 89.09375 C 323.234375 89.890625 324.542969 90.773438 325.789062 91.742188 C 327.039062 92.707031 328.222656 93.753906 329.332031 94.875 C 330.445312 95.996094 331.480469 97.1875 332.4375 98.445312 C 333.398438 99.703125 334.269531 101.015625 335.054688 102.386719 C 335.839844 103.757812 336.535156 105.171875 337.136719 106.632812 C 337.738281 108.09375 338.242188 109.589844 338.652344 111.117188 C 339.058594 112.644531 339.363281 114.191406 339.570312 115.757812 C 339.773438 117.324219 339.875 118.898438 339.875 120.476562 Z M 339.875 120.476562 " fill-opacity="1" fill-rule="nonzero"/><path fill="#ffffff" d="M 104.566406 228.269531 L 111.644531 232.207031 L 105.957031 215.816406 C 107.355469 215.257812 108.347656 213.898438 108.347656 212.300781 C 108.347656 211.078125 107.761719 209.992188 106.863281 209.300781 L 106.863281 179.457031 L 102.269531 179.457031 L 102.269531 209.300781 C 101.367188 209.992188 100.785156 211.078125 100.785156 212.300781 C 100.785156 213.898438 101.773438 215.257812 103.171875 215.816406 L 97.484375 232.207031 L 104.566406 228.269531 " fill-opacity="1" fill-rule="nonzero"/><g clip-path="url(#0c6800cb31)"><path fill="#ffffff" d="M 113.136719 208.683594 L 113.136719 225.769531 L 187.5 259.828125 L 261.863281 225.769531 L 261.863281 208.683594 L 187.5 242.742188 Z M 113.136719 188.222656 L 113.136719 205.308594 L 187.5 239.363281 L 261.863281 205.308594 L 261.863281 188.222656 L 187.5 222.28125 Z M 140.4375 183.640625 C 140.4375 185.042969 139.300781 186.179688 137.898438 186.179688 L 115.929688 186.179688 L 187.5 218.957031 L 300.839844 167.046875 L 187.5 115.136719 L 74.15625 167.046875 L 104.855469 181.105469 L 137.898438 181.105469 C 139.300781 181.105469 140.4375 182.242188 140.4375 183.640625 " fill-opacity="1" fill-rule="nonzero"/></g></svg>